<svg width="23" height="23" viewBox="0 0 23 23" fill="none" xmlns="http://www.w3.org/2000/svg">
<path d="M17.4532 6.80525C17.4532 3.36496 14.6658 0.577576 11.2255 0.577576C7.78522 0.577576 4.99783 3.36496 4.99783 6.80525C4.99783 8.8845 6.01736 10.7277 7.58433 11.8577C7.57428 11.8627 7.56675 11.8652 7.56173 11.8678C6.43924 12.3424 5.43226 13.0229 4.56591 13.8917C3.70456 14.7515 3.01882 15.7708 2.54694 16.8926C2.08266 17.9911 1.83209 19.1681 1.80866 20.3605C1.80799 20.3873 1.81269 20.414 1.82248 20.4389C1.83228 20.4639 1.84697 20.4866 1.86569 20.5058C1.88441 20.525 1.90679 20.5402 1.93149 20.5507C1.9562 20.5611 1.98274 20.5664 2.00955 20.5664H3.51373C3.62171 20.5664 3.71212 20.4785 3.71463 20.3705C3.76485 18.4319 4.5408 16.6164 5.9144 15.2402C7.33321 13.8164 9.21658 13.0329 11.2255 13.0329C14.6658 13.0329 17.4532 10.2455 17.4532 6.80525ZM11.2255 11.1245C8.83991 11.1245 6.90631 9.19086 6.90631 6.80525C6.90631 4.41965 8.83991 2.48606 11.2255 2.48606C13.6111 2.48606 15.5447 4.41965 15.5447 6.80525C15.5447 9.19086 13.6111 11.1245 11.2255 11.1245ZM13.8622 16.6741H20.4917C20.6022 16.6741 20.6926 16.5837 20.6926 16.4732V15.067C20.6926 14.9565 20.6022 14.8661 20.4917 14.8661H16.0595L17.2448 13.3569C17.2721 13.3216 17.2871 13.2784 17.2875 13.2338C17.2875 13.1233 17.1971 13.0329 17.0866 13.0329H15.2635C15.1404 13.0329 15.0249 13.0907 14.9471 13.1861L13.2269 15.3733C13.1164 15.514 13.0561 15.6897 13.0561 15.8705C13.0587 16.315 13.4178 16.6741 13.8622 16.6741V16.6741ZM19.889 18.2813H13.2595C13.1491 18.2813 13.0587 18.3717 13.0587 18.4822V19.8884C13.0587 19.9989 13.1491 20.0893 13.2595 20.0893H17.6917L16.5065 21.5985C16.4791 21.6337 16.4641 21.677 16.4638 21.7215C16.4638 21.832 16.5542 21.9224 16.6647 21.9224H18.4878C18.6108 21.9224 18.7263 21.8647 18.8042 21.7693L20.5243 19.582C20.6348 19.4414 20.6951 19.2656 20.6951 19.0848C20.6926 18.6404 20.3335 18.2813 19.889 18.2813V18.2813Z" fill="#FF6B72"/>
</svg>
